<svg width="567" height="549" viewBox="0 0 567 549" fill="none" xmlns="http://www.w3.org/2000/svg">
<g opacity="0.05">
<path d="M375.874 251.561C377.256 215.844 371.256 180.227 358.248 146.934C345.24 113.642 325.504 83.3908 300.274 58.0723L283.5 41.5348L266.726 58.0723C242.481 82.1264 223.268 110.767 210.207 142.324C197.146 173.881 190.499 207.722 190.654 241.875C190.654 245.182 190.654 248.49 190.654 251.561C154.454 229.876 113.072 218.368 70.875 218.25H47.25V241.875C47.2493 300.442 69.0032 356.923 108.291 400.358C147.579 443.793 201.601 471.087 259.875 476.943V478.125H307.125V476.943C365.399 471.087 419.421 443.793 458.709 400.358C497.997 356.923 519.751 300.442 519.75 241.875V218.25H496.125C453.767 218.283 412.211 229.794 375.874 251.561ZM283.5 110.284C303.779 136.09 317.808 166.241 324.489 198.375C331.169 230.508 330.321 263.753 322.009 295.503C306.485 312.431 293.512 331.532 283.5 352.203C273.488 331.532 260.515 312.431 244.991 295.503C240.373 277.998 237.991 259.979 237.904 241.875C237.732 194.108 253.811 147.703 283.5 110.284ZM96.1538 267.153C137.191 272.683 175.277 291.537 204.557 320.817C233.837 350.098 252.691 388.183 258.221 429.221C217.184 423.691 179.098 404.837 149.818 375.557C120.538 346.277 101.684 308.191 96.1538 267.153ZM308.779 429.221C314.309 388.183 333.163 350.098 362.443 320.817C391.723 291.537 429.809 272.683 470.846 267.153C465.316 308.191 446.462 346.277 417.182 375.557C387.902 404.837 349.816 423.691 308.779 429.221Z" fill="#264065"/>
</g>
</svg>
